<svg xmlns="http://www.w3.org/2000/svg" viewBox="0 0 100 100" width="200" height="200">
  <g transform="translate(100 0) scale(-1 1) rotate(20 50 50)">
    <path d="M 15 43 A 35 35 0 0 1 85 43 L 85 48 A 10 10 0 0 1 75 58 L 25 58 A 10 10 0 0 1 15 48 Z" fill="#66587A" />
    <path d="M 25 53 C 25 68, 15 73, 23 85 A 5 5 0 0 0 33 85 C 25 73, 35 68, 35 53 Z" fill="#66587A" />
    <path d="M 45 53 C 45 73, 55 73, 45 87 A 5 5 0 0 0 55 87 C 65 73, 55 73, 55 53 Z" fill="#66587A" />
    <path d="M 65 53 C 65 68, 75 73, 67 85 A 5 5 0 0 0 77 85 C 85 73, 75 68, 75 53 Z" fill="#66587A" />
  </g>
</svg>